<svg width="15" height="16" viewBox="0 0 15 16" fill="none" xmlns="http://www.w3.org/2000/svg">
<g id="IONIcon/S/stats/chart" clip-path="url(#clip0_1_108)">
<path id="Vector" d="M3.04675 15.0316H2.10925C1.92277 15.0316 1.74393 14.9576 1.61207 14.8257C1.48021 14.6938 1.40613 14.515 1.40613 14.3285V10.1098C1.40613 9.92329 1.48021 9.74445 1.61207 9.61259C1.74393 9.48073 1.92277 9.40665 2.10925 9.40665H3.04675C3.23323 9.40665 3.41208 9.48073 3.54394 9.61259C3.6758 9.74445 3.74988 9.92329 3.74988 10.1098V14.3285C3.74988 14.515 3.6758 14.6938 3.54394 14.8257C3.41208 14.9576 3.23323 15.0316 3.04675 15.0316Z" fill="#4FD1C5"/>
<path id="Vector_2" d="M9.60931 15.0308H8.67181C8.48533 15.0308 8.30649 14.9567 8.17463 14.8249C8.04277 14.693 7.96869 14.5142 7.96869 14.3277V7.29645C7.96869 7.10997 8.04277 6.93112 8.17463 6.79926C8.30649 6.6674 8.48533 6.59332 8.67181 6.59332H9.60931C9.79579 6.59332 9.97464 6.6674 10.1065 6.79926C10.2384 6.93112 10.3124 7.10997 10.3124 7.29645V14.3277C10.3124 14.5142 10.2384 14.693 10.1065 14.8249C9.97464 14.9567 9.79579 15.0308 9.60931 15.0308Z" fill="#4FD1C5"/>
<path id="Vector_3" d="M12.8905 15.0312H11.953C11.7665 15.0312 11.5877 14.9571 11.4558 14.8252C11.324 14.6934 11.2499 14.5145 11.2499 14.3281V4.01556C11.2499 3.82908 11.324 3.65024 11.4558 3.51838C11.5877 3.38652 11.7665 3.31244 11.953 3.31244H12.8905C13.077 3.31244 13.2558 3.38652 13.3877 3.51838C13.5195 3.65024 13.5936 3.82908 13.5936 4.01556V14.3281C13.5936 14.5145 13.5195 14.6934 13.3877 14.8252C13.2558 14.9571 13.077 15.0312 12.8905 15.0312Z" fill="#4FD1C5"/>
<path id="Vector_4" d="M6.328 15.031H5.3905C5.20402 15.031 5.02518 14.957 4.89332 14.8251C4.76146 14.6932 4.68738 14.5144 4.68738 14.3279V1.67166C4.68738 1.48518 4.76146 1.30634 4.89332 1.17448C5.02518 1.04262 5.20402 0.968536 5.3905 0.968536H6.328C6.51448 0.968536 6.69333 1.04262 6.82519 1.17448C6.95705 1.30634 7.03113 1.48518 7.03113 1.67166V14.3279C7.03113 14.5144 6.95705 14.6932 6.82519 14.8251C6.69333 14.957 6.51448 15.031 6.328 15.031Z" fill="#4FD1C5"/>
</g>
<defs>
<clipPath id="clip0_1_108">
<rect width="15" height="15" fill="white" transform="translate(-6.10352e-05 0.500031)"/>
</clipPath>
</defs>
</svg>
