<svg width="15" height="16" viewBox="0 0 15 16" fill="none" xmlns="http://www.w3.org/2000/svg">
<g id="IONIcon/C/card/default" clip-path="url(#clip0_1_104)">
<path id="Vector" d="M0.937378 11.5153C0.937378 11.9504 1.11023 12.3677 1.41791 12.6754C1.72558 12.983 2.14288 13.1559 2.578 13.1559H12.4217C12.8569 13.1559 13.2742 12.983 13.5818 12.6754C13.8895 12.3677 14.0624 11.9504 14.0624 11.5153V7.00354H0.937378V11.5153ZM2.87097 9.2887C2.87097 9.0556 2.96357 8.83204 3.1284 8.66722C3.29322 8.50239 3.51678 8.40979 3.74988 8.40979H5.15613C5.38923 8.40979 5.61278 8.50239 5.77761 8.66722C5.94243 8.83204 6.03503 9.0556 6.03503 9.2887V9.87463C6.03503 10.1077 5.94243 10.3313 5.77761 10.4961C5.61278 10.6609 5.38923 10.7535 5.15613 10.7535H3.74988C3.51678 10.7535 3.29322 10.6609 3.1284 10.4961C2.96357 10.3313 2.87097 10.1077 2.87097 9.87463V9.2887Z" fill="#4FD1C5"/>
<path id="Vector_2" d="M12.4217 2.84302H2.578C2.14288 2.84302 1.72558 3.01587 1.41791 3.32355C1.11023 3.63122 0.937378 4.04852 0.937378 4.48364V5.24536H14.0624V4.48364C14.0624 4.04852 13.8895 3.63122 13.5818 3.32355C13.2742 3.01587 12.8569 2.84302 12.4217 2.84302Z" fill="#4FD1C5"/>
</g>
<defs>
<clipPath id="clip0_1_104">
<rect width="15" height="15" fill="white" transform="translate(-6.10352e-05 0.500061)"/>
</clipPath>
</defs>
</svg>
