<svg width="15" height="16" viewBox="0 0 15 16" fill="none" xmlns="http://www.w3.org/2000/svg">
<g id="IONIcon/B/build/default" clip-path="url(#clip0_1_100)">
<path id="Vector" d="M13.7566 4.03136C13.7229 3.96571 13.6741 3.90896 13.6142 3.86574C13.5544 3.82251 13.4852 3.79403 13.4123 3.7826C13.3394 3.77118 13.2648 3.77715 13.1946 3.80001C13.1244 3.82287 13.0606 3.86199 13.0084 3.91417L11.2084 5.71534C11.12 5.80242 11.0009 5.85123 10.8769 5.85123C10.7528 5.85123 10.6338 5.80242 10.5454 5.71534L9.76727 4.93604C9.72373 4.89252 9.68919 4.84084 9.66563 4.78396C9.64207 4.72708 9.62994 4.66612 9.62994 4.60455C9.62994 4.54298 9.64207 4.48202 9.66563 4.42514C9.68919 4.36826 9.72373 4.31659 9.76727 4.27306L11.5597 2.48038C11.6134 2.42666 11.6532 2.36068 11.6758 2.28812C11.6984 2.21557 11.703 2.13861 11.6892 2.06389C11.6754 1.98917 11.6437 1.91892 11.5967 1.85918C11.5498 1.79945 11.489 1.75203 11.4196 1.72101C10.0658 1.11573 8.37596 1.43155 7.31043 2.48917C6.40516 3.388 6.13534 4.79249 6.57069 6.34259C6.59416 6.42525 6.5943 6.51279 6.57108 6.59553C6.54786 6.67826 6.5022 6.75296 6.43915 6.81134L1.5618 11.2659C1.3718 11.4365 1.21854 11.644 1.11137 11.8758C1.00421 12.1076 0.945383 12.3588 0.93849 12.6141C0.931598 12.8693 0.97678 13.1233 1.07128 13.3605C1.16578 13.5978 1.30762 13.8132 1.48815 13.9938C1.66867 14.1745 1.88409 14.3164 2.12128 14.411C2.35846 14.5056 2.61243 14.5509 2.8677 14.5441C3.12297 14.5373 3.37417 14.4786 3.606 14.3716C3.83783 14.2645 4.04542 14.1113 4.2161 13.9214L8.71844 9.03321C8.77598 8.97097 8.84942 8.92561 8.93083 8.90202C9.01224 8.87843 9.09855 8.87749 9.18045 8.89932C9.62177 9.02024 10.077 9.08298 10.5346 9.08595C11.5131 9.08595 12.3718 8.76925 12.9911 8.15899C14.1381 7.02901 14.313 5.11241 13.7566 4.03136ZM2.91503 13.6006C2.72208 13.6217 2.52735 13.5823 2.35771 13.488C2.18808 13.3937 2.0519 13.249 1.96797 13.074C1.88405 12.899 1.85651 12.7022 1.88916 12.5109C1.92181 12.3196 2.01305 12.1431 2.15027 12.0058C2.28749 11.8686 2.46394 11.7773 2.65526 11.7445C2.84657 11.7118 3.04333 11.7393 3.21837 11.8232C3.39341 11.907 3.53811 12.0431 3.6325 12.2128C3.72688 12.3824 3.76629 12.5771 3.7453 12.77C3.7222 12.9823 3.62731 13.1804 3.47633 13.3314C3.32535 13.4825 3.12732 13.5774 2.91503 13.6006Z" fill="#4FD1C5"/>
</g>
<defs>
<clipPath id="clip0_1_100">
<rect width="15" height="15" fill="white" transform="translate(-6.10352e-05 0.499969)"/>
</clipPath>
</defs>
</svg>
