<svg width="13" height="13" viewBox="0 0 13 13" fill="none" xmlns="http://www.w3.org/2000/svg">
<g id="IONIcon/N/notifications/default">
<path id="Vector" d="M10.8146 8.4989C10.7757 8.45202 10.7375 8.40515 10.7 8.35992C10.1843 7.73624 9.87238 7.35984 9.87238 5.59429C9.87238 4.68023 9.6537 3.93023 9.22269 3.36773C8.90488 2.95218 8.47527 2.63695 7.90902 2.40398C7.90173 2.39993 7.89522 2.39461 7.8898 2.38828C7.68613 1.70625 7.12878 1.24945 6.50019 1.24945C5.8716 1.24945 5.31449 1.70625 5.11082 2.38757C5.10538 2.39367 5.09896 2.39882 5.09183 2.40281C3.77043 2.94679 3.12824 3.99046 3.12824 5.59359C3.12824 7.35984 2.81675 7.73624 2.30066 8.35921C2.26316 8.40445 2.22496 8.45038 2.18605 8.4982C2.08555 8.6194 2.02188 8.76685 2.00256 8.92311C1.98325 9.07937 2.0091 9.23789 2.07707 9.37991C2.22168 9.6846 2.52988 9.87374 2.88168 9.87374H10.1213C10.4714 9.87374 10.7775 9.68484 10.9226 9.38155C10.9909 9.2395 11.017 9.08085 10.9978 8.92441C10.9787 8.76797 10.9151 8.6203 10.8146 8.4989Z" fill="#718096"/>
<path id="Vector_2" d="M6.50008 11.7496C6.83876 11.7494 7.17105 11.6574 7.46171 11.4836C7.75237 11.3097 7.99056 11.0605 8.15102 10.7622C8.15857 10.7479 8.16231 10.7319 8.16185 10.7158C8.1614 10.6996 8.15677 10.6838 8.14842 10.67C8.14007 10.6561 8.12828 10.6447 8.1142 10.6367C8.10011 10.6288 8.08422 10.6246 8.06805 10.6246H4.93258C4.91639 10.6246 4.90046 10.6287 4.88635 10.6366C4.87223 10.6446 4.86041 10.656 4.85203 10.6699C4.84365 10.6837 4.839 10.6995 4.83854 10.7157C4.83807 10.7319 4.84181 10.7479 4.84938 10.7622C5.00981 11.0604 5.24797 11.3097 5.53858 11.4835C5.8292 11.6574 6.16144 11.7493 6.50008 11.7496Z" fill="#718096"/>
</g>
</svg>
