<svg width="15" height="16" viewBox="0 0 15 16" fill="none" xmlns="http://www.w3.org/2000/svg">
<g id="IONIcon/P/person/default">
<path id="Vector" d="M9.74522 2.39184C9.1751 1.77631 8.37881 1.43735 7.49991 1.43735C6.61631 1.43735 5.81739 1.77426 5.24991 2.38598C4.67627 3.00444 4.39678 3.84496 4.46241 4.75258C4.59248 6.54321 5.95508 7.99985 7.49991 7.99985C9.04473 7.99985 10.405 6.5435 10.5371 4.75317C10.6036 3.85375 10.3224 3.01498 9.74522 2.39184Z" fill="#4FD1C5"/>
<path id="Vector_2" d="M12.6562 14.5617H2.34367C2.20869 14.5634 2.07502 14.5351 1.95237 14.4787C1.82973 14.4223 1.7212 14.3392 1.63469 14.2356C1.44426 14.008 1.3675 13.6971 1.42434 13.3828C1.6716 12.0111 2.44328 10.8588 3.65617 10.05C4.73371 9.33189 6.09865 8.93668 7.49992 8.93668C8.90119 8.93668 10.2661 9.33218 11.3437 10.05C12.5566 10.8586 13.3282 12.0108 13.5755 13.3825C13.6323 13.6968 13.5556 14.0077 13.3652 14.2353C13.2787 14.339 13.1702 14.4221 13.0475 14.4785C12.9249 14.535 12.7912 14.5634 12.6562 14.5617Z" fill="#4FD1C5"/>
</g>
</svg>
