<svg width="16" height="16" viewBox="0 0 16 16" fill="none" xmlns="http://www.w3.org/2000/svg">
<g id="Icon">
<path id="Vector" d="M14.1301 13.0962L11.3736 10.3397C12.0372 9.45617 12.3955 8.38077 12.3943 7.27579C12.3943 4.45333 10.098 2.15704 7.27555 2.15704C4.45309 2.15704 2.1568 4.45333 2.1568 7.27579C2.1568 10.0983 4.45309 12.3945 7.27555 12.3945C8.38053 12.3957 9.45592 12.0375 10.3394 11.3738L13.096 14.1304C13.2355 14.2551 13.4175 14.3217 13.6046 14.3165C13.7917 14.3112 13.9696 14.2346 14.102 14.1022C14.2343 13.9699 14.311 13.7919 14.3162 13.6048C14.3214 13.4177 14.2549 13.2357 14.1301 13.0962ZM3.6193 7.27579C3.6193 6.55265 3.83373 5.84576 4.23549 5.24449C4.63724 4.64322 5.20827 4.17459 5.87636 3.89786C6.54445 3.62113 7.2796 3.54872 7.98885 3.6898C8.69809 3.83087 9.34957 4.1791 9.8609 4.69043C10.3722 5.20177 10.7205 5.85325 10.8615 6.56249C11.0026 7.27174 10.9302 8.00688 10.6535 8.67498C10.3767 9.34307 9.90812 9.9141 9.30685 10.3159C8.70558 10.7176 7.99868 10.932 7.27555 10.932C6.30621 10.9309 5.3769 10.5453 4.69147 9.85987C4.00605 9.17444 3.62046 8.24513 3.6193 7.27579Z" fill="#2D3748"/>
</g>
</svg>
