<svg width="13" height="13" viewBox="0 0 13 13" fill="none" xmlns="http://www.w3.org/2000/svg">
<g id="IONIcon/S/settings/sharp">
<path id="Vector" d="M6.49997 4.62482C6.12913 4.62482 5.76662 4.73478 5.45828 4.94081C5.14993 5.14684 4.90961 5.43967 4.7677 5.78228C4.62578 6.1249 4.58865 6.5019 4.661 6.86561C4.73335 7.22932 4.91192 7.56342 5.17415 7.82564C5.43637 8.08786 5.77046 8.26644 6.13418 8.33879C6.49789 8.41113 6.87489 8.374 7.2175 8.23209C7.56011 8.09017 7.85295 7.84985 8.05897 7.54151C8.265 7.23317 8.37497 6.87066 8.37497 6.49981C8.37349 6.00299 8.17546 5.52694 7.82415 5.17563C7.47285 4.82432 6.99679 4.6263 6.49997 4.62482ZM10.5481 6.49981C10.5471 6.67501 10.5343 6.84995 10.5097 7.02341L11.6508 7.91685C11.7005 7.95789 11.734 8.01526 11.7453 8.07872C11.7566 8.14218 11.745 8.20759 11.7125 8.26325L10.6329 10.127C10.6001 10.1822 10.5489 10.224 10.4883 10.2451C10.4277 10.2663 10.3615 10.2654 10.3015 10.2425L8.95973 9.70349C8.68033 9.91864 8.37457 10.0972 8.04989 10.2348L7.84927 11.6593C7.83804 11.7232 7.805 11.7811 7.75579 11.8232C7.70659 11.8654 7.64428 11.8891 7.5795 11.8904H5.42044C5.35684 11.8892 5.29554 11.8664 5.24655 11.8259C5.19755 11.7853 5.16375 11.7293 5.15067 11.6671L4.95005 10.2425C4.62447 10.1065 4.31849 9.92768 4.04021 9.71075L2.69841 10.2498C2.63843 10.2726 2.57232 10.2736 2.51171 10.2525C2.45109 10.2314 2.39986 10.1896 2.367 10.1345L1.28747 8.27099C1.25498 8.21532 1.24334 8.14991 1.25463 8.08645C1.26592 8.023 1.29941 7.96562 1.34911 7.92458L2.49028 7.03114C2.46594 6.85506 2.4531 6.67757 2.45185 6.49981C2.45282 6.32462 2.46566 6.14968 2.49028 5.97622L1.34911 5.08278C1.29941 5.04174 1.26592 4.98437 1.25463 4.92091C1.24334 4.85745 1.25498 4.79204 1.28747 4.73638L2.367 2.87263C2.39982 2.81746 2.45104 2.77562 2.51166 2.75449C2.57228 2.73335 2.6384 2.73427 2.69841 2.75708L4.04021 3.29614C4.31961 3.08099 4.62537 2.90243 4.95005 2.76482L5.15067 1.34029C5.1619 1.27648 5.19494 1.21855 5.24415 1.1764C5.29335 1.13425 5.35566 1.11049 5.42044 1.10919H7.5795C7.6431 1.11043 7.7044 1.13319 7.75339 1.17376C7.80239 1.21432 7.83619 1.2703 7.84927 1.33255L8.04989 2.75708C8.37588 2.89301 8.68226 3.07186 8.96091 3.28888L10.3015 2.74982C10.3615 2.72699 10.4276 2.72603 10.4882 2.74712C10.5488 2.76821 10.6001 2.81 10.6329 2.86513L11.7125 4.72888C11.745 4.78454 11.7566 4.84995 11.7453 4.91341C11.734 4.97687 11.7005 5.03424 11.6508 5.07528L10.5097 5.96872C10.534 6.14473 10.5468 6.32214 10.5481 6.49981Z" fill="#718096"/>
</g>
</svg>
