<svg width="15" height="16" viewBox="0 0 15 16" fill="none" xmlns="http://www.w3.org/2000/svg">
<g id="IONIcon/D/document/default">
<path id="Vector" d="M12.5391 7.06267H8.4375C8.06454 7.06267 7.70685 6.91451 7.44313 6.65079C7.17941 6.38706 7.03125 6.02938 7.03125 5.65642V1.55486C7.03125 1.52378 7.0189 1.49397 6.99693 1.47199C6.97495 1.45001 6.94514 1.43767 6.91406 1.43767H4.21875C3.72147 1.43767 3.24456 1.63521 2.89292 1.98684C2.54129 2.33847 2.34375 2.81539 2.34375 3.31267V12.6877C2.34375 13.1849 2.54129 13.6619 2.89292 14.0135C3.24456 14.3651 3.72147 14.5627 4.21875 14.5627H10.7812C11.2785 14.5627 11.7554 14.3651 12.1071 14.0135C12.4587 13.6619 12.6562 13.1849 12.6562 12.6877V7.17985C12.6562 7.14877 12.6439 7.11897 12.6219 7.09699C12.5999 7.07501 12.5701 7.06267 12.5391 7.06267Z" fill="#4FD1C5"/>
<path id="Vector_2" d="M12.2818 6.026L8.06859 1.81282C8.0604 1.80467 8.04998 1.79913 8.03865 1.79689C8.02731 1.79465 8.01557 1.79581 8.00489 1.80022C7.99422 1.80464 7.98508 1.81211 7.97864 1.8217C7.9722 1.83129 7.96874 1.84257 7.96869 1.85412V5.65715C7.96869 5.78147 8.01807 5.9007 8.10598 5.98861C8.19389 6.07652 8.31312 6.1259 8.43744 6.1259H12.2405C12.252 6.12585 12.2633 6.12239 12.2729 6.11595C12.2825 6.10951 12.29 6.10037 12.2944 6.0897C12.2988 6.07902 12.2999 6.06728 12.2977 6.05594C12.2955 6.04461 12.2899 6.03419 12.2818 6.026Z" fill="#4FD1C5"/>
</g>
</svg>
