<svg width="13" height="12" viewBox="0 0 13 12" fill="none" xmlns="http://www.w3.org/2000/svg">
<g id="IONIcon/P/person/default" clip-path="url(#clip0_1_76)">
<path id="Vector" d="M8.29615 1.51317C7.84006 1.02074 7.20302 0.749573 6.4999 0.749573C5.79302 0.749573 5.15388 1.0191 4.6999 1.50848C4.24099 2.00324 4.0174 2.67567 4.0699 3.40176C4.17396 4.83426 5.26404 5.99957 6.4999 5.99957C7.73576 5.99957 8.82396 4.83449 8.92966 3.40223C8.98287 2.6827 8.75787 2.01168 8.29615 1.51317Z" fill="#718096"/>
<path id="Vector_2" d="M10.625 11.249H2.37501C2.26703 11.2504 2.16009 11.2277 2.06197 11.1826C1.96386 11.1375 1.87704 11.0711 1.80782 10.9882C1.65548 10.8061 1.59407 10.5574 1.63954 10.3059C1.83736 9.20855 2.4547 8.28676 3.42501 7.63965C4.28704 7.0652 5.37899 6.74902 6.50001 6.74902C7.62102 6.74902 8.71298 7.06543 9.57501 7.63965C10.5453 8.28652 11.1627 9.20832 11.3605 10.3057C11.4059 10.5571 11.3445 10.8058 11.1922 10.9879C11.123 11.0709 11.0362 11.1373 10.9381 11.1825C10.84 11.2277 10.733 11.2504 10.625 11.249Z" fill="#718096"/>
</g>
<defs>
<clipPath id="clip0_1_76">
<rect width="12" height="12" fill="white" transform="translate(0.5 -0.000244141)"/>
</clipPath>
</defs>
</svg>
